<svg xmlns="http://www.w3.org/2000/svg" xmlns:xlink="http://www.w3.org/1999/xlink" width="500" zoomAndPan="magnify" viewBox="0 0 375 374.999991" height="500" preserveAspectRatio="xMidYMid meet" version="1.0"><defs><clipPath id="6bf954e731"><path d="M 109.890625 131.25 L 122.339844 131.25 L 122.339844 187.511719 L 109.890625 187.511719 Z M 109.890625 131.25 " clip-rule="nonzero"/></clipPath><clipPath id="91b359fd3c"><path d="M 116.113281 131.25 C 119.550781 131.25 122.339844 134.035156 122.339844 137.472656 L 122.339844 181.277344 C 122.339844 184.714844 119.550781 187.5 116.113281 187.5 C 112.675781 187.5 109.890625 184.714844 109.890625 181.277344 L 109.890625 137.472656 C 109.890625 134.035156 112.675781 131.25 116.113281 131.25 Z M 116.113281 131.25 " clip-rule="nonzero"/></clipPath></defs><rect x="-37.5" width="450" fill="#ffffff" y="-37.499999" height="449.999989" fill-opacity="1"/><rect x="-37.5" width="450" fill="#ffffff" y="-37.499999" height="449.999989" fill-opacity="1"/><path fill="#000000" d="M 274.972656 342.121094 L 274.972656 323.664062 C 274.972656 315.515625 274.730469 307.371094 274.257812 299.242188 C 273.042969 282.558594 272.429688 265.839844 272.429688 249.121094 C 272.429688 233.070312 272.992188 217.023438 274.117188 201.011719 C 276.261719 170.511719 278.539062 134.648438 278.246094 123.273438 C 278.203125 121.371094 276.46875 119.066406 272.539062 119.066406 C 267.363281 119.066406 264.398438 122.019531 262.933594 124.328125 C 257.753906 132.480469 240.027344 163.160156 240.027344 236.070312 C 240.023438 242.070312 247.304688 243.34375 250.007812 245.445312 C 251.816406 246.855469 253.480469 250.8125 253.292969 254.007812 L 250.652344 299.242188 C 250.179688 307.371094 249.941406 315.515625 249.941406 323.664062 L 249.941406 353.828125 C 249.378906 354.039062 248.816406 354.257812 248.253906 354.460938 C 233.269531 359.917969 217.570312 363.316406 201.578125 364.566406 L 201.578125 323.25 C 201.578125 315.105469 201.34375 306.960938 200.863281 298.832031 L 196.839844 229.886719 C 196.578125 225.394531 197.585938 220.917969 199.753906 216.972656 C 199.753906 216.972656 209.847656 205.691406 210.46875 197.464844 C 211.710938 172.5625 206.878906 120.179688 204.449219 119.480469 L 202.277344 119.480469 C 199.339844 119.984375 204.8125 182.882812 199.882812 182.882812 L 198.351562 182.882812 C 194.242188 182.882812 198.140625 119.199219 194.84375 119.480469 L 192.507812 119.480469 C 190.894531 119.480469 193.207031 182.882812 190.203125 182.882812 L 187.925781 182.882812 C 183.957031 182.882812 187.234375 119.480469 185.617188 119.480469 L 183.285156 119.480469 C 179.992188 119.199219 183.886719 182.882812 179.773438 182.882812 L 178.246094 182.882812 C 173.316406 182.882812 178.785156 119.984375 175.855469 119.480469 L 173.675781 119.480469 C 171.246094 120.179688 166.417969 172.5625 167.660156 197.464844 C 168.039062 201.601562 170.710938 206.476562 173.296875 210.320312 C 175.878906 214.164062 178.371094 216.972656 178.371094 216.972656 C 180.539062 220.917969 181.550781 225.394531 181.289062 229.886719 L 177.261719 298.832031 C 176.789062 306.960938 176.550781 315.105469 176.550781 323.25 L 176.550781 364.785156 C 160.230469 363.796875 144.179688 360.578125 128.835938 355.207031 C 128.289062 355.015625 127.75 354.816406 127.207031 354.621094 L 127.207031 323.367188 C 127.207031 315.21875 126.96875 307.078125 126.496094 298.949219 L 122.464844 238.894531 C 122.203125 234.398438 123.214844 229.925781 125.378906 225.980469 L 133.222656 214.757812 C 133.222656 214.757812 151.328125 193.433594 151.328125 173.519531 C 151.328125 143.613281 134.921875 119.359375 114.6875 119.359375 C 94.457031 119.359375 78.054688 143.613281 78.054688 173.519531 C 78.054688 193.433594 96.15625 214.757812 96.15625 214.757812 L 104.003906 225.980469 C 106.164062 229.925781 107.179688 234.398438 106.914062 238.894531 L 102.886719 298.949219 C 102.414062 307.078125 102.175781 315.21875 102.175781 323.367188 L 102.175781 343.324219 C 75.101562 328.464844 52.28125 306.757812 36.074219 280.398438 C 18.933594 252.519531 9.875 220.398438 9.875 187.5 C 9.875 140.054688 28.351562 95.449219 61.902344 61.902344 C 95.449219 28.351562 140.054688 9.878906 187.496094 9.878906 C 234.941406 9.878906 279.550781 28.351562 313.097656 61.902344 C 346.648438 95.449219 365.125 140.054688 365.125 187.5 C 365.125 251.574219 330.652344 310.566406 274.972656 342.121094 Z M 360.261719 114.515625 C 350.820312 92.1875 337.300781 72.136719 320.082031 54.917969 C 302.863281 37.699219 282.8125 24.179688 260.484375 14.738281 C 237.363281 4.960938 212.808594 0.00390625 187.496094 0.00390625 C 162.1875 0.00390625 137.632812 4.960938 114.515625 14.738281 C 92.1875 24.179688 72.136719 37.699219 54.917969 54.917969 C 37.699219 72.136719 24.179688 92.1875 14.738281 114.515625 C 4.957031 137.632812 0 162.191406 0 187.5 C 0 222.226562 9.566406 256.136719 27.660156 285.570312 C 45.25 314.179688 70.21875 337.597656 99.863281 353.296875 C 108.132812 357.679688 116.785156 361.457031 125.574219 364.527344 C 141.871094 370.234375 158.925781 373.644531 176.253906 374.664062 C 179.953125 374.882812 183.734375 374.996094 187.496094 374.996094 C 192.292969 374.996094 197.160156 374.8125 201.953125 374.445312 C 218.96875 373.148438 235.683594 369.550781 251.628906 363.742188 C 260.453125 360.53125 269.105469 356.617188 277.339844 352.105469 C 337.578125 319.164062 375 256.09375 375 187.5 C 375 162.1875 370.042969 137.632812 360.261719 114.515625 " fill-opacity="1" fill-rule="nonzero"/><g clip-path="url(#6bf954e731)"><g clip-path="url(#91b359fd3c)"><path fill="#000000" d="M 109.890625 131.25 L 122.339844 131.25 L 122.339844 187.511719 L 109.890625 187.511719 Z M 109.890625 131.25 " fill-opacity="1" fill-rule="nonzero"/></g></g></svg>